<?xml version="1.0" standalone="no"?><!DOCTYPE svg PUBLIC "-//W3C//DTD SVG 1.1//EN" "http://www.w3.org/Graphics/SVG/1.1/DTD/svg11.dtd"><svg t="1550456553701" class="icon" style="" viewBox="0 0 2559 1024" version="1.1" xmlns="http://www.w3.org/2000/svg" p-id="1805" xmlns:xlink="http://www.w3.org/1999/xlink" width="499.8046875" height="200"><defs><style type="text/css"></style></defs><path d="M393.227914 455.117445l-84.444989-116.672419V2.166231l84.444989 35.89482v417.056394zM545.130084 788.868971h-15.201619V134.667335h84.444989v584.730241a69.395387 69.395387 0 0 1-69.24337 69.471395z" fill="#7DB43D" p-id="1806"></path><path d="M614.392456 221.487576L308.782925 88.055373V0l305.609531 134.3443v87.143276zM84.426044 886.805396H0.000057V256.793334a69.376385 69.376385 0 0 1 69.281375-69.471394h15.201618z" fill="#7DB43D" p-id="1807"></path><path d="M308.782925 1024L0.000057 889.807716v-87.466311l308.782868 134.800349v86.858246z" fill="#7DB43D" p-id="1808"></path><path d="M308.782925 1024l-84.425986-36.502886V680.120396l84.425986 115.893336v227.986268zM70.630575 319.252983l13.795469-131.912041 294.227319 409.531592 157.64078 95.998219-6.327674 95.998218-219.302343-135.921468L70.630575 319.252983z" fill="#7DB43D" p-id="1809"></path><path d="M1177.650412 716.718291h-53.889736l-237.145243-290.046874v290.046874h-67.36217V307.11069h51.191449L1110.288242 597.138563V307.11069h67.36217zM1638.069422 716.794299H1279.672272V307.205701h70.060458v351.081371H1570.707251V307.205701h67.362171zM2098.830468 716.718291H1740.433318V307.11069h76.787174v351.081371h281.609976zM2559.249477 716.794299h-358.39715v-58.507227h292.992188v-117.033458h-292.992188V307.205701h355.774871v58.507227h-290.369909v114.487187h292.992188z" fill="#1D2124" p-id="1810"></path></svg>