<svg xmlns="http://www.w3.org/2000/svg" viewBox="0 0 414.31 168.86"><defs><style>.cls-1{font-size:50px;font-family:Arial-BoldMT, Arial;font-weight:700;}.cls-1,.cls-2{fill:#7aac40;}.cls-3{fill:#1c2023;}</style></defs><title>资源 9</title><g id="图层_2" data-name="图层 2"><g id="图层_1-2" data-name="图层 1"><text class="cls-1" transform="translate(308.71 42.9) scale(0.97 1)">Beta</text><path class="cls-2" d="M50,3.08V57.87L63.66,76.76V23.31L85.8,33v81.66L61.3,99.71,13.67,33.41H11.21A11.22,11.22,0,0,0,0,44.65V147.13l36.32,15.79v0L50,168.86V132L36.32,113.18v35.65l-22.65-9.89V57.87l36.62,50.92,35.51,22h2.45a11.22,11.22,0,0,0,11.21-11.24V24.83Z"/><polygon class="cls-3" points="179.74 99.75 140.92 52.8 132.63 52.8 132.63 119.11 143.53 119.11 143.53 72.16 181.92 119.11 190.65 119.11 190.65 52.8 179.74 52.8 179.74 99.75"/><polygon class="cls-3" points="254.28 109.65 218.51 109.65 218.51 52.81 207.16 52.81 207.16 119.12 265.19 119.12 265.19 52.81 254.28 52.81 254.28 109.65"/><polygon class="cls-3" points="294.19 52.8 281.75 52.8 281.75 119.11 339.78 119.11 339.78 109.64 294.19 109.64 294.19 52.8"/><polygon class="cls-3" points="366.88 80.82 366.88 62.29 413.89 62.29 413.89 52.81 356.29 52.81 356.29 90.7 403.73 90.7 403.73 109.65 356.29 109.65 356.29 119.12 414.31 119.12 414.31 80.82 366.88 80.82"/></g></g></svg>