<svg xmlns="http://www.w3.org/2000/svg" viewBox="0 0 722.22 662.5"><defs><style>.cls-1{fill:#79ac40;}</style></defs><title>资源 1</title><g id="图层_2" data-name="图层 2"><g id="图层_1-2" data-name="图层 1"><path class="cls-1" d="M659.55,390.92a59.7,59.7,0,0,1,59.67,59.72V599.83a59.68,59.68,0,0,1-59.67,59.67H420.78a59.66,59.66,0,0,1-59.67-59.67V450.64a59.69,59.69,0,0,1,59.67-59.72Zm0,44.76H420.78a14.92,14.92,0,0,0-14.91,15V599.83a14.94,14.94,0,0,0,14.91,14.91H659.55a14.9,14.9,0,0,0,14.91-14.91V450.64a14.94,14.94,0,0,0-14.91-15Zm-537.17,7.48a82.08,82.08,0,1,1-82.07,82.07,82.08,82.08,0,0,1,82.07-82.07Zm194,89.53a22.38,22.38,0,0,1,4,44.4l-4,.36H241.73a22.38,22.38,0,0,1-4-44.4l4-.36Zm-194-44.77a37.32,37.32,0,1,0,37.32,37.31,37.32,37.32,0,0,0-37.32-37.31Zm0-194a22.4,22.4,0,0,1,22,18.36l.36,4v74.58a22.38,22.38,0,0,1-44.41,4l-.36-4V316.34A22.38,22.38,0,0,1,122.38,294ZM599.83,249.2a22.39,22.39,0,0,1,22,18.36l.36,4v74.58a22.38,22.38,0,0,1-44.41,4l-.36-4V271.58a22.38,22.38,0,0,1,22.38-22.38ZM301.44,3a59.68,59.68,0,0,1,59.67,59.67v149.2a59.68,59.68,0,0,1-59.67,59.71H62.67A59.66,59.66,0,0,1,3,211.87V62.67A59.68,59.68,0,0,1,62.67,3Zm0,44.76H62.67A14.92,14.92,0,0,0,47.76,62.67v149.2a15,15,0,0,0,14.91,14.95H301.44a14.94,14.94,0,0,0,14.9-14.95V62.67a14.9,14.9,0,0,0-14.9-14.91Zm298.39,7.43a82.08,82.08,0,1,1-82.07,82.08,82.08,82.08,0,0,1,82.07-82.08Zm0,44.77a37.31,37.31,0,1,0,37.31,37.31A37.31,37.31,0,0,0,599.83,100ZM473,70.15a22.38,22.38,0,0,1,4,44.4l-4,.36H398.4a22.38,22.38,0,0,1-4-44.41l4-.35Z"/><path class="cls-1" d="M659.55,662.5H420.78a62.65,62.65,0,0,1-62.67-62.67V450.64a62.77,62.77,0,0,1,62.67-62.72H659.55a62.77,62.77,0,0,1,62.67,62.72V599.83A62.74,62.74,0,0,1,659.55,662.5ZM420.78,393.92a56.76,56.76,0,0,0-56.67,56.72V599.83a56.66,56.66,0,0,0,56.67,56.67H659.55a56.73,56.73,0,0,0,56.67-56.67V450.64a56.76,56.76,0,0,0-56.67-56.72ZM659.55,617.74H420.78a17.93,17.93,0,0,1-17.91-17.91V450.64A17.8,17.8,0,0,1,408.1,438a18,18,0,0,1,12.68-5.27H659.55A18,18,0,0,1,672.23,438a17.82,17.82,0,0,1,5.23,12.7V599.83A17.93,17.93,0,0,1,659.55,617.74ZM420.78,438.68a12,12,0,0,0-8.43,3.5,11.87,11.87,0,0,0-3.48,8.45v149.2a11.93,11.93,0,0,0,11.91,11.91H659.55a11.93,11.93,0,0,0,11.91-11.91V450.64a11.92,11.92,0,0,0-11.91-12ZM122.38,610.31a85.08,85.08,0,1,1,85.08-85.08A85.17,85.17,0,0,1,122.38,610.31Zm0-164.15a79.08,79.08,0,1,0,79.08,79.07A79.16,79.16,0,0,0,122.38,446.16Zm119.3,134.29a25.38,25.38,0,0,1-4.52-50.36l.27,0,4.3-.37h74.65a25.38,25.38,0,0,1,4.53,50.36l-.27,0-4.3.37H241.68ZM238.1,536a19.38,19.38,0,0,0,3.59,38.43h74.52l3.76-.33a19.38,19.38,0,0,0-3.59-38.43H241.86ZM122.38,565.55a40.32,40.32,0,1,1,40.32-40.32A40.37,40.37,0,0,1,122.38,565.55Zm0-74.63a34.32,34.32,0,1,0,34.32,34.31A34.35,34.35,0,0,0,122.38,490.92Zm-.07-74.57a25.23,25.23,0,0,1-24.9-20.86l0-.27-.37-4.3V316.34A25.41,25.41,0,0,1,122.38,291h0a25.39,25.39,0,0,1,25,20.82l0,.27.37,4.29v74.58a25.25,25.25,0,0,1-23.09,25.32C123.88,416.31,123.09,416.35,122.31,416.35Zm-19-21.8a19.39,19.39,0,0,0,38.44-3.62V316.48l-.34-3.75a19.37,19.37,0,0,0-19-15.77h0A19.41,19.41,0,0,0,103,316.34v74.45Zm496.44-23a25.23,25.23,0,0,1-24.91-20.87l0-.27-.37-4.29V271.58a25.41,25.41,0,0,1,25.38-25.38h0a25.38,25.38,0,0,1,25,20.82l0,.27.37,4.29v74.58a25.27,25.27,0,0,1-23.09,25.32C601.33,371.55,600.55,371.59,599.77,371.59Zm-19-21.81a19.38,19.38,0,0,0,38.43-3.62V271.71l-.34-3.75a19.38,19.38,0,0,0-19-15.76h0a19.41,19.41,0,0,0-19.38,19.38V346Zm-279.35-75.2H62.67A62.67,62.67,0,0,1,0,211.86V62.67A62.74,62.74,0,0,1,62.67,0H301.44a62.74,62.74,0,0,1,62.67,62.67v149.2A62.76,62.76,0,0,1,301.44,274.58ZM62.67,6A56.73,56.73,0,0,0,6,62.67v149.2a56.66,56.66,0,0,0,56.67,56.71H301.44a56.75,56.75,0,0,0,56.67-56.71V62.67A56.73,56.73,0,0,0,301.44,6ZM301.44,229.82H62.67a18,18,0,0,1-17.91-17.95V62.67A17.94,17.94,0,0,1,62.67,44.76H301.44a17.91,17.91,0,0,1,17.9,17.91v149.2A17.94,17.94,0,0,1,301.44,229.82ZM62.67,50.76A11.92,11.92,0,0,0,50.76,62.67v149.2a11.94,11.94,0,0,0,11.91,11.95H301.44a11.94,11.94,0,0,0,11.9-11.95V62.67a11.9,11.9,0,0,0-11.9-11.91ZM599.83,222.34a85.08,85.08,0,1,1,85.08-85.07A85.16,85.16,0,0,1,599.83,222.34Zm0-164.15a79.08,79.08,0,1,0,79.08,79.08A79.17,79.17,0,0,0,599.83,58.19Zm0,119.39a40.31,40.31,0,1,1,40.31-40.31A40.36,40.36,0,0,1,599.83,177.58Zm0-74.62a34.31,34.31,0,1,0,34.31,34.31A34.35,34.35,0,0,0,599.83,103Zm-201.48,15a25.38,25.38,0,0,1-4.52-50.36l.27,0,4.3-.37h74.66a25.38,25.38,0,0,1,4.52,50.35l-.27,0-4.29.37H398.35Zm-3.58-44.43a19.38,19.38,0,0,0,3.59,38.43h74.53l3.75-.33a19.38,19.38,0,0,0-3.58-38.43H398.53Z"/></g></g></svg>