<svg xmlns="http://www.w3.org/2000/svg" viewBox="0 0 724.29 665.4"><defs><style>.cls-1{fill:#79ac40;}</style></defs><title>资源2</title><g id="图层_2" data-name="图层 2"><g id="图层_1-2" data-name="图层 1"><path class="cls-1" d="M117.52,480.94a20.27,20.27,0,0,1-14.38-6L7.93,379.62a20.32,20.32,0,0,1,0-28.71l94.92-95.07a20.32,20.32,0,0,1,28.75,28.71L51,365.26l80.88,81a20.32,20.32,0,0,1-14.37,34.66Zm181.54,0a20.31,20.31,0,0,1-14.37-34.66l80.88-81L285,284.55a20.31,20.31,0,0,1,28.74-28.71l94.93,95.07a20.33,20.33,0,0,1,0,28.71L313.43,475a20.23,20.23,0,0,1-14.37,6Zm-123.14,1.28a20.34,20.34,0,0,1-19.16-27.09L224.05,264.7a20.31,20.31,0,1,1,38.3,13.53L195.07,468.66a20.34,20.34,0,0,1-19.15,13.56Z"/><path class="cls-1" d="M175.92,484.22a22.06,22.06,0,0,1-7.44-1.29,22.33,22.33,0,0,1-13.6-28.47L222.16,264a22.32,22.32,0,0,1,42.08,14.87L197,469.33A22.35,22.35,0,0,1,175.92,484.22Zm67.3-231.07a18.33,18.33,0,0,0-17.28,12.22L158.65,455.8A18.31,18.31,0,1,0,193.18,468l67.29-190.43a18.33,18.33,0,0,0-17.25-24.42Zm55.84,229.79a22.31,22.31,0,0,1-15.78-38.08l79.47-79.6L283.57,286a22.3,22.3,0,0,1,15.78-38.07h0a22.16,22.16,0,0,1,15.77,6.54l94.92,95.07a22.34,22.34,0,0,1,0,31.53l-95.21,95.36A22.16,22.16,0,0,1,299.06,482.94Zm.29-231a18.3,18.3,0,0,0-13,31.24l82,82.13-82.29,82.43A18.31,18.31,0,0,0,312,473.57l95.21-95.36a18.33,18.33,0,0,0,0-25.88l-94.92-95.07a18.18,18.18,0,0,0-12.94-5.37ZM117.52,482.94a22.15,22.15,0,0,1-15.79-6.55L6.51,381a22.34,22.34,0,0,1,0-31.53l94.93-95.07a22.17,22.17,0,0,1,15.77-6.55h0A22.32,22.32,0,0,1,133,286l-79.19,79.3,79.47,79.6a22.32,22.32,0,0,1-15.78,38.08Zm-.29-231.06h0a18.23,18.23,0,0,0-13,5.38L9.34,352.33a18.35,18.35,0,0,0,0,25.88l95.22,95.36a18.31,18.31,0,1,0,25.91-25.88L48.18,365.26l82-82.13a18.32,18.32,0,0,0-13-31.25Z"/><path class="cls-1" d="M664.65,665.4H238.93a59.7,59.7,0,0,1-59.64-59.63V555.32a25,25,0,0,1,50,0v50.45a9.64,9.64,0,0,0,9.64,9.63H664.65a9.64,9.64,0,0,0,9.64-9.63V188.3L536,50H238.93a9.65,9.65,0,0,0-9.64,9.64V181.21a25,25,0,0,1-50,0V59.64A59.7,59.7,0,0,1,238.93,0H546.35A25,25,0,0,1,564,7.32l153,153A25,25,0,0,1,724.29,178V605.77A59.7,59.7,0,0,1,664.65,665.4Z"/><path class="cls-1" d="M699.29,204.77H579.56a59.71,59.71,0,0,1-59.63-59.64V25h50V145.13a9.65,9.65,0,0,0,9.63,9.64H699.29Z"/><path class="cls-1" d="M614.11,318.41H473.79a25,25,0,0,1,0-50H614.11a25,25,0,0,1,0,50Z"/><path class="cls-1" d="M614.11,423.34H473.79a25,25,0,0,1,0-50H614.11a25,25,0,0,1,0,50Z"/><path class="cls-1" d="M614.11,528.28H473.79a25,25,0,1,1,0-50H614.11a25,25,0,0,1,0,50Z"/></g></g></svg>